<svg width="97" height="30" viewBox="0 0 97 30" fill="none" xmlns="http://www.w3.org/2000/svg">
<path d="M65.5867 9.56728C65.1533 5.54333 62.6439 2.14533 59.0166 0.714596C55.3894 -0.71614 51.2603 0.0439387 48.3403 2.61479C46.5837 1.07228 44.3024 0.155715 41.9299 0.0439386C39.1011 -0.0901929 36.432 0.871083 34.4016 2.77128C32.5082 4.53734 31.3447 6.97407 31.1166 9.61199C31.0025 10.9309 31.1394 12.2499 31.5729 13.6583L13.8701 13.6136C13.3911 13.6136 13.0032 13.8371 12.7751 14.2172C12.5242 14.6419 12.5242 15.1784 12.7751 15.6032C13.0032 15.9832 13.3911 16.2068 13.8701 16.2068L33.4435 16.2515C33.8998 16.2515 34.2648 16.0503 34.4929 15.715C34.7438 15.3349 34.7895 14.7984 34.5841 14.3513C33.0557 10.8862 33.626 7.21997 36.067 4.80561C37.5726 3.33016 39.5573 2.57008 41.6333 2.63715C43.8233 2.70421 45.9221 3.7102 47.3821 5.36449C47.6102 5.61039 47.9524 5.76688 48.3403 5.76688C48.7281 5.76688 49.0703 5.63275 49.2984 5.36449C51.5569 2.81599 54.956 1.92178 58.0129 3.08425C60.7048 4.11259 62.6439 6.68345 62.9633 9.63434C63.0545 10.4838 63.8301 10.9086 64.5373 10.8415C65.2217 10.7521 65.6552 10.2379 65.5867 9.56728Z" fill="#2B3541"/>
<path d="M9.39895 26.1548H6.25079C5.86297 26.1548 5.56641 25.8418 5.56641 25.4841V4.20191C5.56641 3.82187 5.88579 3.53125 6.25079 3.53125H9.42177C9.80958 3.53125 10.1061 3.84422 10.1061 4.20191V25.4841C10.0833 25.8418 9.78677 26.1548 9.39895 26.1548Z" fill="#2B3541"/>
<path d="M3.87817 23.4945H0.684384C0.319379 23.4945 0 23.2039 0 22.8239V6.79517C0 6.43749 0.296566 6.12451 0.684384 6.12451H3.87817C4.24318 6.12451 4.56256 6.41513 4.56256 6.79517V22.8239C4.56256 23.2039 4.26599 23.4945 3.87817 23.4945Z" fill="#2B3541"/>
<path d="M14.9198 28.4575H11.7716C11.3838 28.4575 11.0645 28.1445 11.0645 27.7645V1.8771C11.0645 1.49706 11.3838 1.18408 11.7716 1.18408H14.9198C15.3076 1.18408 15.627 1.49706 15.627 1.8771V27.7868C15.627 28.1669 15.3076 28.4575 14.9198 28.4575Z" fill="#2B3541"/>
<path d="M82.9697 14.2174C82.7416 13.8373 82.3538 13.6138 81.8747 13.6138L63.3279 13.6585C62.9173 13.6585 62.3698 13.882 62.1645 14.3291C60.0657 18.8896 55.8225 22.31 52.7884 24.5008C51.4424 25.4621 50.0965 26.3563 48.7505 27.1611L48.6137 27.2281C48.4083 27.3399 48.4083 27.3399 48.2258 27.2728C47.7011 27.0716 47.1765 26.714 46.6746 26.3786C46.4693 26.2445 46.2639 26.1104 46.0814 25.9762C44.7127 25.1044 43.5264 24.2772 42.4314 23.4501C40.2642 21.7734 38.4848 20.0968 36.9791 18.2637C36.5457 17.7271 35.8613 17.6601 35.3138 18.0848C34.7663 18.5096 34.5154 19.3591 35.0629 20.0297C36.5229 21.7958 38.2566 23.4724 40.3782 25.1267C41.6101 26.088 42.9105 27.0269 44.2564 27.8988C44.9408 28.3459 45.6708 28.793 46.4236 29.2401L46.5833 29.3295C47.108 29.6425 47.7011 30.0002 48.4083 30.0002C48.5452 30.0002 48.7049 29.9778 48.8646 29.9555C49.4349 29.8213 49.9824 29.4637 50.4843 29.1507C50.6212 29.0613 50.7352 28.9718 50.8721 28.9048C51.6706 28.413 52.469 27.8764 53.2675 27.3399C55.5031 25.7974 57.3966 24.2772 59.0847 22.69C61.3888 20.4992 63.0542 18.3754 64.172 16.2517L81.8747 16.207C82.3538 16.207 82.7416 15.9834 82.9697 15.6034C83.2207 15.1786 83.2207 14.6421 82.9697 14.2174Z" fill="#FBF138"/>
<path d="M87.6004 26.1548H90.7714C91.1592 26.1548 91.4558 25.8418 91.4558 25.4841V4.20191C91.4558 3.82187 91.1364 3.53125 90.7714 3.53125H87.6004C87.2126 3.53125 86.916 3.84422 86.916 4.20191V25.4841C86.916 25.8418 87.2126 26.1548 87.6004 26.1548Z" fill="#FBF138"/>
<path d="M93.1219 23.4948H96.3157C96.6807 23.4948 97.0001 23.2042 97.0001 22.8241V6.79541C97.0001 6.43773 96.7035 6.12476 96.3157 6.12476H93.1219C92.7569 6.12476 92.4375 6.41537 92.4375 6.79541V22.8241C92.4375 23.2042 92.7341 23.4948 93.1219 23.4948Z" fill="#FBF138"/>
<path d="M82.0802 28.4575H85.2284C85.6162 28.4575 85.9356 28.1445 85.9356 27.7645V1.8771C85.9356 1.49706 85.6162 1.18408 85.2284 1.18408H82.0802C81.6924 1.18408 81.373 1.49706 81.373 1.8771V27.7868C81.373 28.1669 81.6924 28.4575 82.0802 28.4575Z" fill="#FBF138"/>
</svg>
