<svg width="26" height="26" viewBox="0 0 26 26" fill="none" xmlns="http://www.w3.org/2000/svg">
<path d="M3.80859 26H22.1914C24.2915 26 26 24.2915 26 22.1914V3.80859C26 1.70851 24.2915 0 22.1914 0H3.80859C1.70851 0 0 1.70851 0 3.80859V22.1914C0 24.2915 1.70851 26 3.80859 26ZM1.52344 3.80859C1.52344 2.54858 2.54858 1.52344 3.80859 1.52344H22.1914C23.4514 1.52344 24.4766 2.54858 24.4766 3.80859V22.1914C24.4766 23.4514 23.4514 24.4766 22.1914 24.4766H3.80859C2.54858 24.4766 1.52344 23.4514 1.52344 22.1914V3.80859Z" fill="#2B3541"/>
<path d="M13 19.8555C16.78 19.8555 19.8555 16.78 19.8555 13C19.8555 9.21997 16.78 6.14453 13 6.14453C9.21997 6.14453 6.14453 9.21997 6.14453 13C6.14453 16.78 9.21997 19.8555 13 19.8555ZM13 7.66797C15.9402 7.66797 18.332 10.0598 18.332 13C18.332 15.9402 15.9402 18.332 13 18.332C10.0598 18.332 7.66797 15.9402 7.66797 13C7.66797 10.0598 10.0598 7.66797 13 7.66797Z" fill="#2B3541"/>
<path d="M20.6172 7.66797C21.8772 7.66797 22.9023 6.64282 22.9023 5.38281C22.9023 4.1228 21.8772 3.09766 20.6172 3.09766C19.3572 3.09766 18.332 4.1228 18.332 5.38281C18.332 6.64282 19.3572 7.66797 20.6172 7.66797ZM20.6172 4.62109C21.0371 4.62109 21.3789 4.96288 21.3789 5.38281C21.3789 5.80275 21.0371 6.14453 20.6172 6.14453C20.1973 6.14453 19.8555 5.80275 19.8555 5.38281C19.8555 4.96288 20.1973 4.62109 20.6172 4.62109Z" fill="#2B3541"/>
</svg>
