<svg width="78" height="24" viewBox="0 0 78 24" fill="none" xmlns="http://www.w3.org/2000/svg">
<path d="M52.74 7.65382C52.3914 4.43466 50.3736 1.71627 47.4568 0.571677C44.5401 -0.572912 41.2198 0.035151 38.8717 2.09183C37.4592 0.857824 35.6248 0.124572 33.7169 0.0351509C31.4423 -0.0721544 29.296 0.696866 27.6633 2.21702C26.1407 3.62988 25.2052 5.57925 25.0217 7.68959C24.93 8.74476 25.0401 9.79993 25.3886 10.9266L11.1534 10.8909C10.7682 10.8909 10.4564 11.0697 10.2729 11.3737C10.0711 11.7135 10.0711 12.1428 10.2729 12.4826C10.4564 12.7866 10.7682 12.9654 11.1534 12.9654L26.8929 13.0012C27.2597 13.0012 27.5533 12.8402 27.7367 12.572C27.9385 12.2679 27.9752 11.8387 27.8101 11.481C26.581 8.70899 27.0396 5.77598 29.0025 3.84448C30.2132 2.66413 31.8091 2.05606 33.4785 2.10972C35.2395 2.16337 36.9272 2.96816 38.1012 4.29159C38.2847 4.48832 38.5598 4.61351 38.8717 4.61351C39.1835 4.61351 39.4587 4.5062 39.6422 4.29159C41.4582 2.25279 44.1915 1.53742 46.6497 2.4674C48.8143 3.29007 50.3736 5.34676 50.6304 7.70747C50.7038 8.38707 51.3275 8.72687 51.8961 8.67322C52.4465 8.60168 52.795 8.19035 52.74 7.65382Z" fill="#2A2A2A"/>
<path d="M7.55792 20.9239H5.0264C4.71455 20.9239 4.47607 20.6735 4.47607 20.3874V3.3616C4.47607 3.05757 4.7329 2.82507 5.0264 2.82507H7.57626C7.88811 2.82507 8.12659 3.07545 8.12659 3.3616V20.3874C8.10824 20.6735 7.86977 20.9239 7.55792 20.9239Z" fill="#2A2A2A"/>
<path d="M3.11853 18.7957H0.550329C0.25682 18.7957 0 18.5632 0 18.2591V5.43615C0 5.15001 0.238476 4.89963 0.550329 4.89963H3.11853C3.41204 4.89963 3.66886 5.13212 3.66886 5.43615V18.2591C3.66886 18.5632 3.43039 18.7957 3.11853 18.7957Z" fill="#2A2A2A"/>
<path d="M11.9972 22.766H9.46565C9.15379 22.766 8.89697 22.5156 8.89697 22.2116V1.50165C8.89697 1.19762 9.15379 0.947235 9.46565 0.947235H11.9972C12.309 0.947235 12.5658 1.19762 12.5658 1.50165V22.2294C12.5658 22.5335 12.309 22.766 11.9972 22.766Z" fill="#2A2A2A"/>
<path d="M66.7184 11.3738C66.5349 11.0697 66.2231 10.8909 65.8378 10.8909L50.9239 10.9267C50.5937 10.9267 50.1534 11.1055 49.9883 11.4632C48.3007 15.1116 44.8886 17.8478 42.4488 19.6005C41.3665 20.3695 40.2842 21.0849 39.2019 21.7287L39.0918 21.7824C38.9267 21.8718 38.9267 21.8718 38.78 21.8181C38.3581 21.6572 37.9361 21.371 37.5326 21.1028C37.3675 20.9955 37.2024 20.8882 37.0556 20.7809C35.9549 20.0834 35.001 19.4217 34.1205 18.7599C32.3778 17.4186 30.9469 16.0773 29.7362 14.6108C29.3877 14.1816 28.8373 14.1279 28.3971 14.4677C27.9568 14.8075 27.755 15.4871 28.1953 16.0237C29.3693 17.4365 30.7635 18.7778 32.4695 20.1013C33.4601 20.8703 34.5057 21.6214 35.5881 22.3189C36.1384 22.6766 36.7254 23.0343 37.3308 23.392L37.4592 23.4635C37.8811 23.7139 38.3581 24 38.9267 24C39.0368 24 39.1652 23.9821 39.2936 23.9642C39.7522 23.8569 40.1925 23.5708 40.5961 23.3204C40.7061 23.2489 40.7978 23.1773 40.9079 23.1237C41.55 22.7302 42.192 22.301 42.8341 21.8718C44.6318 20.6378 46.1544 19.4217 47.5119 18.1519C49.3646 16.3992 50.7038 14.7002 51.6026 13.0012L65.8378 12.9655C66.2231 12.9655 66.5349 12.7866 66.7184 12.4826C66.9202 12.1428 66.9202 11.7136 66.7184 11.3738Z" fill="#FBF138"/>
<path d="M70.4424 20.9239H72.9923C73.3041 20.9239 73.5426 20.6735 73.5426 20.3874V3.36158C73.5426 3.05755 73.2858 2.82506 72.9923 2.82506H70.4424C70.1306 2.82506 69.8921 3.07544 69.8921 3.36158V20.3874C69.8921 20.6735 70.1306 20.9239 70.4424 20.9239Z" fill="#FBF138"/>
<path d="M74.8819 18.7957H77.4501C77.7436 18.7957 78.0004 18.5632 78.0004 18.2592V5.4362C78.0004 5.15005 77.7619 4.89967 77.4501 4.89967H74.8819C74.5884 4.89967 74.3315 5.13217 74.3315 5.4362V18.2592C74.3315 18.5632 74.57 18.7957 74.8819 18.7957Z" fill="#FBF138"/>
<path d="M66.0028 22.766H68.5343C68.8461 22.766 69.1029 22.5156 69.1029 22.2116V1.50165C69.1029 1.19762 68.8461 0.947235 68.5343 0.947235H66.0028C65.6909 0.947235 65.4341 1.19762 65.4341 1.50165V22.2294C65.4341 22.5335 65.6909 22.766 66.0028 22.766Z" fill="#FBF138"/>
</svg>
