<svg width="34" height="53" viewBox="0 0 34 53" fill="none" xmlns="http://www.w3.org/2000/svg">
<path d="M30.7677 32.5673C31.7301 27.2752 32.5855 21.9382 32.6619 16.5562C32.7077 12.4634 32.4175 7.84596 29.5914 4.56278C27.3917 1.99919 24.1837 0.709906 20.9146 0.559989C15.9346 -0.879216 12.024 0.574981 8.02162 3.55833C4.38592 6.27183 2.56807 9.68995 2.18617 14.1425C1.66679 20.2141 2.47642 26.5107 3.49991 32.5073C2.14035 32.5973 0.536359 32.8671 0.10863 33.9615C-0.120511 34.5612 0.047526 36.0754 0.291943 36.6151C0.68912 37.4696 1.5293 37.4246 1.95703 38.0693C2.6139 39.0737 2.00286 41.9521 1.88065 42.9865C1.69734 44.5457 1.60568 46.0598 1.77372 47.619C1.98758 49.5229 2.232 52.2814 4.52341 52.8211C11.3671 54.4252 9.1215 44.8005 8.20494 41.5323C8.02163 40.8727 7.73138 40.2131 7.62445 39.5235C7.19672 37.0348 7.56334 37.7994 8.32715 36.3602C8.75488 35.5656 8.84653 35.1009 8.70905 34.1115C8.37297 31.8927 6.84537 32.4174 4.84421 32.4324C4.81365 32.4324 4.76783 32.4324 4.722 32.4324C4.0804 28.6994 3.6374 24.9515 3.43881 21.1736C3.2555 17.8005 2.9958 14.1125 3.98875 10.8293C4.0193 10.7244 4.06513 10.6494 4.09568 10.5445C3.16384 14.0975 3.43881 18.0403 4.96641 21.3985C8.11328 28.2947 16.3012 29.7039 22.9463 26.9154C26.1085 25.5962 29.072 23.7072 30.2025 20.379C31.4398 16.7211 31.6231 11.8338 30.0497 8.26573C29.3012 6.57167 28.1402 5.0725 26.7501 3.82818C28.0944 4.72769 29.2248 5.89704 29.9428 7.35124C31.7606 11.0542 31.562 15.4468 31.3176 19.4346C31.0579 23.8121 30.3247 28.1298 29.5456 32.4324V32.4474C27.8805 32.2975 26.0779 32.2375 25.5585 33.9316C25.3294 34.6512 25.1919 35.8205 25.528 36.5101C26.139 37.7394 26.7042 37.1548 26.7501 38.6689C26.8723 41.9371 22.0909 52.2664 28.3082 52.8361C34.3423 53.3908 32.9063 45.0704 32.3869 41.3824C32.2342 40.333 31.8523 38.8189 32.4786 37.7994C32.723 37.4096 33.2729 37.2297 33.5021 36.8399C33.9145 36.1953 34.0367 35.2058 33.9909 34.4713C33.9145 32.5973 32.3869 32.7172 30.7677 32.5673ZM7.39531 33.7067C8.28132 34.3963 7.12034 35.8055 6.81482 36.3752C6.20377 37.5296 6.02046 37.5146 6.2496 38.9538C6.66206 41.5473 7.50224 43.991 7.85359 46.6295C8.02163 47.8439 8.60211 49.5529 7.79248 50.6773C7.0134 51.7717 5.57746 51.8766 4.52341 51.3069C2.44587 50.1976 2.79721 46.0149 2.9958 43.946C3.16384 42.132 3.80544 39.8083 3.19439 38.0093C2.84304 36.9749 2.70556 37.4696 2.00286 36.675C-0.120511 34.2314 2.8736 33.7516 4.84421 33.6617C5.43997 33.6467 6.90647 33.3169 7.39531 33.7067ZM18.1649 1.83429C19.4328 1.99919 20.7008 2.359 21.9381 2.97366C25.8335 4.90759 28.0638 7.98089 27.7277 12.3735C27.4375 16.3463 25.5585 20.514 21.3882 21.7883C17.89 22.8527 12.3295 22.7177 10.1755 19.2996C8.38825 16.4512 8.54101 11.9237 9.65616 8.89538C11.0005 5.23741 14.239 2.359 18.1649 1.83429ZM29.2706 19.2397C27.468 25.851 18.8523 27.8449 12.8336 26.5856C5.79132 25.1014 3.65267 16.6461 5.34832 10.5445C6.58568 6.12192 10.0839 2.94367 14.1932 1.99919C12.5433 2.83873 11.0921 4.03807 10.0075 5.58221C5.97463 11.354 6.60095 21.8932 14.8347 23.2724C18.5163 23.8871 22.8547 23.3624 25.5891 20.6489C28.3082 17.9504 29.3623 13.4978 28.904 9.80988C28.8582 9.4051 28.7665 9.00033 28.6596 8.62553C30.0802 11.8188 30.2636 15.6117 29.2706 19.2397ZM31.8523 36.75C30.9204 38.0243 30.844 38.2192 30.9968 40.0182C31.1954 42.222 33.2424 52.5213 28.5526 51.6518C24.0615 50.8122 27.8652 41.5024 28.0027 38.6839C28.0485 37.6495 27.9569 37.5146 27.5903 36.765C27.2236 36.0304 25.8641 34.8311 26.9028 33.8266C27.3764 33.3619 29.7289 33.6917 30.3705 33.7516C32.891 34.0665 33.2118 34.891 31.8523 36.75Z" fill="#2B3541"/>
</svg>
