<svg width="35" height="40" viewBox="0 0 35 40" fill="none" xmlns="http://www.w3.org/2000/svg">
<path d="M34.7204 23.6854C34.3069 21.38 33.0389 19.0188 31.3758 17.2712C32.7265 14.9565 34.2334 13.0136 34.509 10.1969C34.7388 7.79852 34.3345 4.86098 32.7632 2.95529C31.2288 1.0775 29.1522 0.491847 26.8459 0.333814C23.7769 0.120005 20.6712 0.0642293 17.5931 0.101413C12.8978 0.15719 6.7966 -0.865373 2.94663 2.55556C1.09056 4.21026 0.180904 6.93399 0.015511 9.36955C-0.205012 12.5767 1.97266 14.9936 3.57145 17.5315C2.03698 19.558 1.05381 22.0214 0.548442 24.5221C-0.15907 28.036 0.00632228 30.7225 1.43054 34.0598C2.18399 35.8353 3.5347 37.992 5.15187 39.0982C6.26367 39.8605 7.63276 39.8326 8.91914 39.8791C12.8794 40.0371 16.8488 40 20.809 39.9349C23.3634 39.8884 26.5059 40.2788 29.0051 39.563C31.4677 38.8658 32.7081 35.9841 33.6545 33.8181C34.996 30.7411 35.2993 26.9669 34.7204 23.6854ZM5.26213 2.25809C8.79969 0.445366 13.7155 1.17975 17.5931 1.13327C19.541 1.10538 21.4982 1.12398 23.4461 1.21694C26.1383 1.33778 29.29 1.0589 31.4217 3.03896C33.1859 4.67506 33.6729 7.49175 33.5167 9.80646C33.3329 12.5302 31.8995 14.3708 30.6039 16.5368C30.4385 16.3881 30.2732 16.2393 30.0986 16.1092C29.0511 15.3097 28.022 14.659 26.9653 14.1198C28.4538 11.7586 30.7234 8.35628 27.6453 6.16242C24.6314 4.00574 19.2837 4.89816 15.8656 4.92605C14.3679 4.94464 12.9069 5.07479 11.4184 5.24212C9.94825 5.40015 8.02786 5.34437 6.79661 6.28327C3.75522 8.59798 5.50103 11.9074 7.26522 14.2779C6.95281 14.4545 6.6404 14.6311 6.34637 14.8356C5.56535 15.3748 4.87621 15.9976 4.26059 16.6855C2.79962 14.4266 0.980301 12.2699 1.09056 9.43462C1.21001 6.47849 2.60666 3.62461 5.26213 2.25809ZM17.7493 12.0282C14.5057 12.0561 11.1428 12.3908 8.19325 13.7852C6.94362 12.1677 5.35401 10.0575 6.69553 7.99374C7.74302 6.37623 9.53477 6.47849 11.1795 6.30186C13.0264 6.10665 14.8181 5.96721 16.6742 5.95791C19.247 5.94861 21.9668 5.77199 24.5304 6.14383C26.3497 6.40412 27.9393 7.17569 28.0312 9.30448C28.1047 11.0057 26.8826 12.2978 26.0189 13.6643C23.4921 12.5395 20.8458 12.0654 17.7493 12.0282ZM33.8842 28.0081C33.7648 31.0014 32.7908 33.7902 31.2196 36.3187C29.3176 39.3771 25.6422 38.7822 22.5089 38.8472C18.7692 38.9309 15.0203 38.9681 11.2806 38.8937C8.81807 38.8472 6.61283 39.0611 4.69244 37.1926C2.93745 35.4821 2.07373 33.0651 1.38459 30.7597C0.180903 26.7438 2.09211 20.8966 4.65569 17.7825C7.88084 13.8595 12.9988 13.1066 17.7493 13.0694C22.3803 13.1251 26.9469 14.2964 30.3834 17.6616C33.1583 20.3667 34.0312 24.2525 33.8842 28.0081Z" fill="#2B3541"/>
<path d="M18.6318 18.3589C15.9396 17.9777 13.4312 19.5488 12.742 22.2353C12.0713 24.8568 13.082 27.469 15.8569 28.036C18.4756 28.5659 22.1143 27.7014 22.6564 24.6802C23.1434 21.9657 21.3332 18.9073 18.6318 18.3589ZM16.9044 27.0878C11.4281 26.874 13.4128 18.6656 18.3562 19.3628C20.2858 19.7533 21.5997 21.6311 21.6916 23.5925C21.8294 26.3813 19.1648 27.1808 16.9044 27.0878Z" fill="#2B3541"/>
<path d="M9.79181 16.1092C6.95257 17.6803 4.92191 20.2924 4.06739 23.4438C3.8928 24.0945 4.88516 24.3734 5.05974 23.7227C5.84995 20.8223 7.69683 18.4611 10.3155 17.0109C10.9036 16.6856 10.3799 15.7839 9.79181 16.1092Z" fill="#2B3541"/>
<path d="M3.98446 25.3865C3.32289 25.3865 3.32289 26.4276 3.98446 26.4276C4.64603 26.4276 4.64603 25.3865 3.98446 25.3865Z" fill="#2B3541"/>
</svg>
