<svg width="23" height="45" viewBox="0 0 23 45" fill="none" xmlns="http://www.w3.org/2000/svg">
<path d="M22.8934 31.0852C22.7868 29.72 22.8934 28.8798 22.0406 27.8296C21.5075 27.1995 20.9745 26.8845 20.6547 26.0443C19.5886 23.734 21.0811 23.1039 22.0406 21.5286C22.6802 20.4784 22.6802 19.3232 22.6802 18.063C22.5736 16.0677 22.6802 13.8623 22.2538 11.972C21.934 10.5018 21.1877 9.97666 19.8019 9.66161C19.5886 9.66161 19.3754 9.55659 19.1622 9.55659C19.2688 8.08635 19.3754 5.88098 17.9896 5.04084C17.0301 4.72579 15.7509 4.62077 14.4716 4.62077C14.4716 4.09568 14.4716 3.67561 14.365 3.15053C15.0046 2.94049 15.5377 2.62544 15.4311 1.99533C15.3244 0.315053 12.9791 0 11.6999 0C10.6338 0 9.67439 -1.87786e-07 8.71495 0.735122C8.18192 1.15519 7.32908 1.89032 7.54229 2.73046C7.6489 3.25554 8.18192 3.46558 8.82155 3.5706C8.82155 3.99067 8.82155 4.51575 8.92816 4.93582C7.6489 4.83081 6.26304 4.83081 5.30359 5.35589C3.70452 6.19603 4.02433 8.29638 4.13094 9.76663C2.95828 9.87165 1.67903 10.0817 1.0394 11.2369C0.293163 12.6021 0.506373 14.9125 0.612978 16.3827C0.719583 18.3781 0.399768 20.0583 1.57242 21.7386C2.21205 22.6838 3.06489 23.3139 2.95829 24.5741C2.95829 25.9393 2.10545 26.7795 1.25261 27.8296C0.506373 28.8798 0.293164 29.72 0.186559 30.9802C-0.0266509 32.9755 -0.0266513 35.0758 0.0799536 37.0712C0.0799536 38.9615 -0.239861 41.4819 0.399768 43.2672C0.826188 44.4224 1.57242 44.6324 2.63847 44.7375C5.5168 45.1575 8.50174 44.9475 11.4867 44.9475C14.1518 44.9475 16.7103 44.9475 19.3754 44.9475C20.5481 44.9475 21.6141 44.8425 22.1472 43.8973C22.8934 42.6371 22.6802 40.3267 22.7868 38.9615C23.1066 36.231 23 33.7106 22.8934 31.0852ZM9.46118 1.47025C10.2074 0.945158 10.9536 0.945158 11.8065 0.945158C12.3395 0.945158 12.8725 0.84014 13.299 1.05018C13.4056 1.26021 14.4716 1.89032 14.365 2.10035C14.2584 2.52042 12.1263 2.31038 11.6999 2.31038C10.847 2.31038 9.99421 2.4154 9.14137 2.4154C9.03476 2.4154 8.60834 2.4154 8.60834 2.4154C8.50174 2.20537 9.35458 1.57526 9.46118 1.47025ZM9.8876 3.46558C10.6338 3.46558 11.2735 3.36056 11.6999 3.25554C12.0197 3.25554 12.6593 3.25554 13.299 3.25554C13.299 3.46558 13.299 3.78063 13.299 3.99067C13.299 4.2007 13.299 4.41073 13.299 4.62077C12.3395 4.72579 11.3801 4.83081 10.6338 4.83081C10.4206 4.83081 10.2074 4.83081 9.9942 4.83081C9.9942 4.41074 9.8876 3.99067 9.8876 3.46558ZM6.79606 6.09102C8.18192 5.986 9.67439 5.986 11.0603 5.88098C12.4461 5.88098 13.9386 5.77596 15.3244 5.88098C18.0962 5.88098 18.0962 7.35123 18.0962 9.55659C16.0707 9.34656 13.9386 9.34656 11.9131 9.24154C9.67439 9.24154 7.43569 9.24154 5.19699 9.45158C5.09038 7.98133 4.98378 6.30105 6.79606 6.09102ZM21.934 37.5963C21.934 39.2765 22.1472 42.217 20.7613 43.2672C19.3754 44.3174 16.6037 43.7923 15.0046 43.7923C12.8725 43.7923 10.7404 43.8973 8.60834 43.8973C6.68945 43.8973 2.31866 44.5274 1.35921 42.3221C0.826187 41.0618 1.146 38.7515 1.146 37.3862C1.146 35.706 1.0394 33.9207 1.146 32.2404C1.25261 30.4551 1.46582 29.4049 2.42526 28.0397C3.06489 27.1995 3.70452 26.3594 3.91773 25.3092C4.13094 24.154 3.91773 23.1039 3.2781 22.1587C2.74507 21.3186 2.21205 21.0035 1.89224 20.0583C1.57242 18.9032 1.67903 17.6429 1.67903 16.4877C1.57242 14.0723 1.35921 11.3419 4.34415 10.8168C6.90266 10.3967 9.35458 10.3967 11.9131 10.3967C13.832 10.5018 15.7509 10.6068 17.7764 10.7118C19.0556 10.8168 20.4415 10.7118 21.1877 12.182C21.5075 12.9172 21.4009 13.9673 21.5075 14.8075C21.6141 16.1727 21.7207 17.6429 21.7207 19.0082C21.7207 20.6884 20.8679 21.3186 20.0151 22.5788C18.8424 24.259 19.1622 26.2544 20.5481 27.7246C20.8679 28.1447 21.4009 28.4597 21.7207 28.8798C22.1472 29.72 21.9339 31.0852 22.0406 32.0303C21.9339 33.9207 22.0406 35.811 21.934 37.5963Z" fill="#2B3541"/>
<path d="M7.75511 23.4189C10.4202 23.6289 13.0854 23.6289 15.7505 23.3138C16.3901 23.2088 16.3901 22.2637 15.7505 22.2637C13.0854 22.5787 10.4202 22.5787 7.75511 22.3687C7.11548 22.3687 7.11548 23.3138 7.75511 23.4189Z" fill="#2B3541"/>
<path d="M16.0705 26.5694C13.1922 25.9393 10.2073 25.8342 7.32893 26.4644C6.6893 26.5694 6.90251 27.6196 7.64875 27.4095C10.4205 26.8844 13.0856 26.8844 15.8573 27.5145C16.3903 27.7246 16.7102 26.7794 16.0705 26.5694Z" fill="#2B3541"/>
<path d="M3.70427 12.8121C2.42501 13.8622 2.85143 15.5425 2.85143 17.0128C2.85143 17.6429 3.91748 17.6429 3.91748 17.0128C3.91748 15.9626 3.49106 14.2823 4.4505 13.5472C4.98352 13.1271 4.23729 12.392 3.70427 12.8121Z" fill="#2B3541"/>
<path d="M5.41039 11.657C4.77076 11.657 4.77076 12.7072 5.41039 12.7072C6.15662 12.7072 6.15662 11.657 5.41039 11.657Z" fill="#2B3541"/>
</svg>
