<svg width="39" height="39" viewBox="0 0 39 39" fill="none" xmlns="http://www.w3.org/2000/svg">
<path d="M38.9997 7.07103C39.0199 6.41504 37.9904 6.41504 37.9702 7.07103C37.8592 11.2996 35.8204 13.3584 31.7429 13.7217C27.6956 14.075 20.7517 15.0135 20.0149 9.63443C20.0048 9.53351 19.9645 9.46286 19.914 9.40231C19.9947 8.42337 19.9544 7.41416 19.9645 6.49578C19.9645 5.8398 18.9451 5.8297 18.935 6.49578C18.9249 8.2619 19.1873 10.7647 17.855 12.1171C16.2704 13.7217 13.1315 14.0346 10.9918 14.0951C9.03382 14.1557 6.38947 14.2667 4.6434 13.3786C2.39268 12.2281 1.14116 9.5436 1.03013 7.14168C0.999854 6.48569 -0.0296238 6.4756 0.000654962 7.14168C0.12177 9.55369 1.11088 11.8143 2.9377 13.3887C3.70476 15.7805 3.93689 18.2531 4.51219 20.6853C5.02693 22.8652 5.83436 24.8937 6.07659 27.1341C6.27845 29.0214 6.42985 31.0095 6.27845 32.9068C6.12706 34.7436 5.40037 36.4895 5.17832 38.3263C5.09758 38.9823 6.12706 38.9722 6.2078 38.3263C6.43994 36.4088 7.207 34.6124 7.31802 32.6747C7.42905 30.626 7.28774 28.5168 7.03542 26.4882C6.81338 24.7019 6.2078 23.0468 5.74353 21.311C5.11777 18.9999 4.86544 16.6182 4.26996 14.3071C6.26836 15.2961 8.87233 15.1952 11.0019 15.1346C13.4747 15.0539 16.7448 14.6805 18.5918 12.8538C18.9955 12.4501 19.2781 11.996 19.4901 11.4914C21.3573 15.8411 27.958 15.1447 32.1365 14.7309C33.2165 14.6199 34.145 14.3878 34.9625 14.0447C34.2661 15.8411 34.0643 17.7283 33.6908 19.666C33.277 21.8459 32.3888 23.9148 32.0659 26.1148C31.7631 28.1837 31.6521 30.3333 31.7227 32.4123C31.8035 34.4408 32.5705 36.328 32.8027 38.3263C32.8834 38.9722 33.9028 38.9823 33.8321 38.3263C33.6303 36.5702 32.9641 34.9051 32.7825 33.149C32.5806 31.1912 32.7623 29.092 32.9641 27.1442C33.1862 25.0653 33.9028 23.1881 34.3973 21.1697C35.0635 18.4751 35.0534 15.72 36.4462 13.2373C36.4664 13.1969 36.4765 13.1566 36.4866 13.1162C38.0913 11.8244 38.9291 9.80599 38.9997 7.07103Z" fill="#2B3541"/>
<path d="M28.2806 19.3064C27.3823 20.8808 20.7109 20.5881 19.9236 19.0541C19.8934 18.9936 19.853 18.9633 19.8227 18.9229C20.0347 17.9642 19.9136 16.8036 19.8429 15.643C19.8025 14.987 18.7831 14.987 18.8134 15.643C18.9446 17.8733 19.419 19.922 16.4416 20.1844C14.6652 20.3459 11.8291 20.8102 10.4666 19.4376C10.0023 18.9633 9.27561 19.6899 9.73989 20.1643C11.5263 21.9707 15.0992 21.5469 17.3701 21.1028C18.3492 20.9111 18.9648 20.5276 19.3484 20.0028C20.4182 21.234 22.6689 21.1937 24.1324 21.2239C25.6968 21.2542 28.2503 21.4258 29.1587 19.8211C29.5018 19.2459 28.6137 18.7312 28.2806 19.3064Z" fill="#2B3541"/>
<path d="M18.6621 26.4012C18.2786 27.0269 17.2693 27.2691 16.6133 27.3095C14.9076 27.4205 12.1219 27.6627 12.021 25.3012C11.9907 24.6452 10.9713 24.6351 10.9915 25.3012C11.042 26.3911 11.2236 27.3902 12.2935 27.8848C13.6258 28.5105 15.2003 28.4196 16.6133 28.3288C17.6427 28.2683 18.8135 28.2985 19.409 27.2994C19.409 27.2893 19.4191 27.2792 19.4191 27.2792C19.5806 27.5114 19.8026 27.7031 20.1155 27.8646C21.2863 28.4499 22.8709 28.3692 24.1426 28.3995C26.2116 28.46 27.6751 27.582 27.988 25.4122C28.0788 24.7663 27.0897 24.4837 26.9989 25.1397C26.7466 26.8957 25.707 27.4205 24.1426 27.3701C22.4873 27.3297 20.4788 27.5921 19.843 25.6847C19.843 25.6847 19.843 25.6847 19.843 25.6746C19.8935 24.9883 19.8632 24.292 19.8228 23.7167C19.7824 23.0607 18.7631 23.0507 18.7933 23.7167C18.8236 24.2415 18.8438 24.7461 18.7933 25.2709C18.7832 25.5838 18.8135 26.159 18.6621 26.4012Z" fill="#2B3541"/>
<path d="M33.408 12.353C34.0641 12.353 34.0742 11.3236 33.408 11.3236C32.752 11.3236 32.752 12.353 33.408 12.353Z" fill="#2B3541"/>
<path d="M5.67269 12.353C6.32873 12.353 6.33883 11.3236 5.67269 11.3236C5.01665 11.3236 5.01665 12.353 5.67269 12.353Z" fill="#2B3541"/>
<path d="M27.0196 32.1942C27.0095 33.2135 26.9994 33.8593 25.9295 34.1621C25.3744 34.3135 24.8294 34.2933 24.2642 34.2731C22.7301 34.2126 20.4087 34.586 20.0555 32.5777C20.1261 31.8308 20.0353 31.0235 20.0151 30.3978C19.9949 29.7418 18.9654 29.7317 18.9856 30.3978C19.0159 31.296 19.1269 32.1134 18.7333 32.941C18.3699 33.7181 17.7139 33.8291 16.9065 33.9704C16.0385 34.1116 15.0897 34.1116 14.2117 34.0713C12.7482 34.0006 12.4959 33.3245 12.2839 32.063C12.1729 31.4171 11.1838 31.6895 11.2948 32.3354C11.4462 33.2942 11.6077 34.3337 12.5463 34.7979C13.7272 35.3933 15.6348 35.1814 16.8863 34.9998C17.7139 34.8786 18.8948 34.6768 19.5004 34.0006C20.4895 35.3833 22.6998 35.2319 24.3954 35.3025C25.223 35.3328 26.3534 35.2924 27.1003 34.8786C28.0692 34.3438 28.0188 33.163 28.0289 32.1841C28.0591 31.5281 27.0297 31.5281 27.0196 32.1942Z" fill="#2B3541"/>
<path d="M9.64999 1.19122C12.2842 1.19122 14.5552 0.888462 16.6949 2.64449C17.1995 3.05826 17.9363 2.34173 17.4215 1.91786C15.0093 -0.050104 12.6678 0.16183 9.64999 0.171922C8.98386 0.171922 8.98386 1.19122 9.64999 1.19122Z" fill="#2B3541"/>
<path d="M22.1543 2.64443C23.9105 0.757201 26.9586 1.12052 29.3405 1.02969C29.9965 1.0095 30.0066 -0.0198912 29.3405 0.000292975C26.6356 0.101214 23.4361 -0.241918 21.4276 1.9077C20.9836 2.40222 21.7102 3.12885 22.1543 2.64443Z" fill="#2B3541"/>
</svg>
