<svg width="39" height="37" viewBox="0 0 39 37" fill="none" xmlns="http://www.w3.org/2000/svg">
<path d="M30.0636 0.21242C25.7622 -0.470291 21.1188 1.91275 19.6324 6.15071C18.8827 4.12835 17.3305 2.44089 15.5152 1.38462C12.4766 -0.380123 9.50381 -0.405885 6.25476 1.01106C3.74233 2.11886 1.78238 5.00428 0.743208 7.52902C-0.572198 10.7107 0.0986596 14.6138 0.914211 17.8341C1.07206 18.4395 1.95338 18.1819 1.80869 17.5765C0.440664 12.1921 0.664283 6.25377 5.37344 2.64699C7.58332 0.959537 11.3848 0.354114 13.8447 1.52632C16.4228 2.75004 18.9747 5.15885 19.172 8.28902C19.2115 8.90732 20.0402 8.90732 20.0928 8.28902C20.5795 2.54394 27.3276 -0.521816 32.063 1.82259C37.0879 4.30868 39.2188 11.3548 37.5614 16.6876C36.5223 20.0497 32.3656 19.2124 29.6427 19.2382C28.0905 19.251 26.5383 19.2639 24.9993 19.251C24.7888 19.251 23.9338 19.251 23.9601 19.2639C23.7102 19.1093 23.092 17.1771 22.9473 16.7907C22.7499 16.2626 22.1054 16.3785 22.0396 16.9195C21.7371 19.4185 21.1057 21.8531 20.619 24.3134C20.1323 20.1785 19.935 16.0049 19.2773 11.8958C19.1984 11.4192 18.488 11.4578 18.3828 11.8958C17.7514 14.7683 17.1069 17.6409 16.4755 20.5134C16.1861 19.1737 15.9098 17.847 15.6204 16.5073C15.5284 16.0693 14.8049 16.0307 14.726 16.5073C14.6207 17.1643 14.4629 18.9676 14.042 19.2897C13.7526 19.5087 12.6476 19.2768 12.2662 19.2768C10.5824 19.2639 8.91188 19.251 7.22816 19.2382C5.39974 19.2253 2.519 18.8388 2.59793 21.7114C2.63739 23.2185 3.97911 24.7385 4.83412 25.8463C6.0706 27.4564 7.54386 28.8476 9.09604 30.11C12.2925 32.7249 15.8572 34.7344 19.3167 36.9371C19.4614 37.0273 19.6456 37.0144 19.7771 36.9371C26.0385 33.369 31.0765 28.7575 35.5225 22.948C35.8909 22.4714 35.2463 21.7758 34.8648 22.2653C31.9315 26.1039 28.6824 29.7493 24.7888 32.5575C23.5523 33.4591 20.8426 36.0225 19.2904 35.8036C18.567 35.7005 17.5672 34.7344 16.9359 34.348C15.9625 33.7425 15.0022 33.15 14.042 32.5188C11.9373 31.1405 9.87212 29.672 8.03056 27.9459C6.92562 26.9025 1.3746 21.3636 5.03143 20.1914C6.41261 19.7405 8.66195 20.2171 10.1089 20.23C11.5427 20.2429 12.9765 20.2558 14.4103 20.2558C14.6207 20.2558 14.7917 20.1012 14.8575 19.908C14.9627 19.5473 15.068 19.1737 15.1732 18.8131C15.4626 20.1527 15.7388 21.4924 16.0282 22.8192C16.1203 23.2829 16.8175 23.2829 16.9227 22.8192C17.5278 20.0883 18.1329 17.3575 18.738 14.6266C19.2641 18.9161 19.4483 23.2443 20.1323 27.508C20.2244 28.0876 20.9873 27.8687 21.0399 27.3792C21.3951 24.468 22.1843 21.647 22.6973 18.7744C23.013 19.4958 23.4471 20.0626 24.289 20.2043C26.3805 20.5649 28.8403 20.2043 30.9581 20.1914C32.9049 20.1785 35.4962 20.6293 37.1142 19.2639C38.5217 18.0788 38.8111 15.9663 38.9557 14.2144C39.4161 8.25037 36.2723 1.1914 30.0636 0.21242Z" fill="#2B3541"/>
</svg>
